<?xml version="1.0" encoding="UTF-8"?><svg id="uuid-63ce7649-0a08-4eae-a23e-20b42fb47b85" xmlns="http://www.w3.org/2000/svg" width="24" height="21" viewBox="0 0 24 21"><path d="m19.6,6.81c-.25-.08-.51-.16-.76-.24.04-.17.08-.35.12-.52.58-2.79.2-5.04-1.08-5.78-1.23-.71-3.24.03-5.28,1.8-.2.17-.4.36-.59.54-.13-.12-.26-.24-.39-.36C9.49.35,7.35-.45,6.07.3c-1.23.71-1.59,2.83-1.08,5.47.05.26.11.52.17.78-.3.08-.6.18-.87.28-2.5.87-4.3,2.24-4.3,3.65s1.91,2.93,4.51,3.82c.21.07.42.14.64.2-.07.28-.13.56-.19.84-.49,2.6-.11,4.66,1.12,5.37,1.27.73,3.39-.02,5.47-1.83.16-.15.33-.3.49-.45.21.2.42.39.64.58,2.01,1.72,3.99,2.42,5.21,1.72,1.27-.73,1.68-2.95,1.14-5.65-.04-.21-.09-.42-.14-.63.15-.04.3-.09.44-.14,2.7-.9,4.66-2.34,4.66-3.83s-1.85-2.8-4.4-3.67Zm-6.34-3.98c1.74-1.52,3.37-2.11,4.11-1.69.79.45,1.1,2.29.6,4.71-.03.16-.07.31-.11.47-1.04-.23-2.1-.4-3.15-.5-.61-.87-1.28-1.71-2-2.49.18-.17.36-.34.55-.5Zm-5.42,10.09c.24.41.48.82.74,1.21-.73-.08-1.46-.2-2.17-.35.21-.67.46-1.37.76-2.09.22.41.44.82.67,1.22Zm-1.42-5.64c.67-.15,1.39-.27,2.14-.37-.25.39-.49.79-.72,1.19-.23.4-.45.81-.67,1.22-.3-.7-.54-1.38-.75-2.04Zm1.28,3.23c.31-.65.65-1.28,1-1.9s.74-1.23,1.14-1.82c.7-.05,1.42-.08,2.15-.08s1.45.03,2.15.08c.4.59.78,1.2,1.14,1.81s.7,1.25,1.02,1.89c-.31.65-.65,1.28-1.01,1.91-.36.62-.74,1.23-1.13,1.83-.7.05-1.42.08-2.16.08s-1.45-.02-2.14-.07c-.41-.6-.79-1.2-1.15-1.83s-.69-1.26-1.01-1.9Zm8.47,2.4c.24-.41.46-.83.68-1.25.3.68.56,1.37.79,2.08-.73.16-1.46.29-2.2.38.25-.39.49-.8.73-1.2Zm.67-3.59c-.22-.41-.45-.83-.68-1.23-.23-.4-.47-.79-.72-1.18.75.09,1.48.22,2.15.38-.22.69-.47,1.37-.75,2.03Zm-4.83-5.27c.49.53.96,1.1,1.39,1.68-.93-.04-1.86-.04-2.79,0,.46-.6.93-1.17,1.4-1.68ZM6.57,1.17c.79-.46,2.54.2,4.38,1.83.12.1.23.22.36.33-.73.78-1.4,1.62-2.01,2.49-1.06.09-2.11.26-3.15.49-.06-.24-.11-.48-.16-.73-.44-2.27-.15-3.98.59-4.41Zm-1.15,12.36c-.2-.06-.39-.12-.58-.18-1-.31-2.13-.81-2.95-1.46-.47-.33-.79-.83-.88-1.4,0-.86,1.48-1.95,3.62-2.7.27-.09.54-.18.81-.26.32,1.02.7,2.02,1.15,2.98-.45.98-.84,1.99-1.16,3.02Zm5.47,4.59c-.77.71-1.67,1.27-2.64,1.65-.52.25-1.12.27-1.65.06-.75-.43-1.05-2.09-.63-4.31.05-.26.11-.53.17-.78,1.05.22,2.11.38,3.18.46.62.88,1.3,1.72,2.02,2.5-.15.15-.3.29-.45.42Zm1.15-1.14c-.48-.52-.96-1.09-1.42-1.7.45.02.91.03,1.38.03s.96,0,1.43-.03c-.43.6-.9,1.16-1.39,1.71Zm6.13,1.41c-.04.57-.32,1.11-.77,1.47-.75.43-2.33-.13-4.05-1.6-.2-.17-.39-.35-.6-.54.72-.79,1.38-1.63,1.98-2.51,1.07-.09,2.14-.25,3.2-.49.05.19.09.38.13.57.23,1.01.27,2.07.12,3.11Zm.85-5.04c-.13.04-.26.08-.4.12-.33-1.02-.73-2.02-1.2-2.99.45-.96.83-1.94,1.15-2.95.24.07.48.15.7.22,2.18.75,3.72,1.87,3.72,2.72,0,.92-1.64,2.1-3.97,2.88Zm-7.02-.7c1.19,0,2.15-.96,2.15-2.15s-.96-2.15-2.15-2.15-2.15.96-2.15,2.15.96,2.15,2.15,2.15Z"/></svg>