<svg id="fc56a46e-d5a5-4d4b-9355-f197f08a6bae" data-name="Layer 1" xmlns="http://www.w3.org/2000/svg" width="18.3" height="23.6" viewBox="0 0 18.3 23.6"><defs><style>.bf3c8751-f2f9-48a8-98dd-840401330c6f{isolation:isolate;}</style></defs><title>sanity</title><path class="bf3c8751-f2f9-48a8-98dd-840401330c6f" d="M19.74,20.86a6.52,6.52,0,0,0,1.41-4.17c0-3.46-2.31-5.58-6.1-6.44l-4.24-1A11.74,11.74,0,0,1,7.42,7.92c.1-2.33,1.87-3.81,4.45-3.81,2.42,0,3.75,1.19,4.28,2.72H21C20.2,3,17.13.2,11.83.2a8.67,8.67,0,0,0-7,3h0a6.45,6.45,0,0,0-1.34,4c0,3.76,2.57,5.5,5.91,6.25l4.16.93a12.6,12.6,0,0,1,3.6,1.43c0,2.55-1.89,4-4.66,4-2.27,0-4-.93-4.62-2.94h-5c.81,4.37,4.45,6.89,9.66,6.89,3.09,0,5.73-1.06,7.22-2.94" transform="translate(-2.85 -0.2)"/></svg>